<?xml version="1.0" encoding="UTF-8"?>
<svg id="Layer_1" data-name="Layer 1" xmlns="http://www.w3.org/2000/svg" xmlns:xlink="http://www.w3.org/1999/xlink" viewBox="0 0 639 314">
  <defs>
    <style>
      .cls-1 {
        fill: #d94e00;
        font-family: TimesNewRomanPSMT, 'Times New Roman';
        font-size: 25px;
      }

      .cls-2 {
        fill: url(#linear-gradient-8);
      }

      .cls-3 {
        fill: url(#linear-gradient-7);
      }

      .cls-4 {
        fill: url(#linear-gradient-5);
      }

      .cls-5 {
        fill: url(#linear-gradient-6);
      }

      .cls-6 {
        fill: url(#linear-gradient-4);
      }

      .cls-7 {
        fill: url(#linear-gradient-3);
      }

      .cls-8 {
        fill: url(#linear-gradient-2);
      }

      .cls-9 {
        fill: url(#linear-gradient);
      }

      .cls-10 {
        fill: #0089d9;
      }

      .cls-11, .cls-12 {
        fill: #79be06;
      }

      .cls-12 {
        font-family: HiraKakuStd-W8-83pv-RKSJ-H, 'Hiragino Kaku Gothic Std';
        font-size: 19px;
      }

      .cls-13 {
        font-family: Quicksand-Bold, Quicksand;
        font-size: 75px;
        font-weight: 700;
        letter-spacing: -.02em;
      }

      .cls-14 {
        letter-spacing: -.08em;
      }

      .cls-15 {
        letter-spacing: -.02em;
      }

      .cls-16 {
        letter-spacing: -.02em;
      }

      .cls-17 {
        letter-spacing: .04em;
      }
    </style>
    <linearGradient id="linear-gradient" x1="377.35" y1="56.61" x2="417.05" y2="21.99" gradientTransform="translate(469.8 240.06) rotate(178.8)" gradientUnits="userSpaceOnUse">
      <stop offset=".12" stop-color="#000"/>
      <stop offset=".43" stop-color="#000" stop-opacity="0"/>
    </linearGradient>
    <linearGradient id="linear-gradient-2" x1="138.37" y1="189.2" x2="71.75" y2="185.99" gradientTransform="translate(-3.5 1.8) rotate(-1.2)" gradientUnits="userSpaceOnUse">
      <stop offset="0" stop-color="#ce3400"/>
      <stop offset=".24" stop-color="#d94e00"/>
      <stop offset=".51" stop-color="#e36400"/>
      <stop offset=".77" stop-color="#e97100"/>
      <stop offset="1" stop-color="#eb7600"/>
    </linearGradient>
    <linearGradient id="linear-gradient-3" x1="116.75" y1="43.28" x2="134.24" y2="28.03" gradientTransform="translate(.92 213.34) rotate(-1.2) scale(1 -1)" xlink:href="#linear-gradient"/>
    <linearGradient id="linear-gradient-4" x1="83.22" y1="145.4" x2="140.13" y2="145.4" gradientTransform="translate(-3.5 1.8) rotate(-1.2)" gradientUnits="userSpaceOnUse">
      <stop offset="0" stop-color="#63a20a"/>
      <stop offset="1" stop-color="#8cd803"/>
    </linearGradient>
    <linearGradient id="linear-gradient-5" x1="83.48" y1="134.05" x2="123.18" y2="99.43" gradientTransform="translate(-3.5 1.8) rotate(-1.2)" gradientUnits="userSpaceOnUse">
      <stop offset=".12" stop-color="#000"/>
      <stop offset=".43" stop-color="#000" stop-opacity="0"/>
    </linearGradient>
    <linearGradient id="linear-gradient-6" x1="40.36" y1="136.81" x2="106.65" y2="136.81" gradientTransform="translate(-3.5 1.8) rotate(-1.2)" gradientUnits="userSpaceOnUse">
      <stop offset="0" stop-color="#e08706"/>
      <stop offset="1" stop-color="#f0bf02"/>
    </linearGradient>
    <linearGradient id="linear-gradient-7" x1="373.42" y1="194.66" x2="390.94" y2="179.38" gradientTransform="translate(425.61 -40.94) rotate(178.8) scale(1 -1)" xlink:href="#linear-gradient"/>
    <linearGradient id="linear-gradient-8" x1="45.59" y1="173.84" x2="71.42" y2="207.98" gradientTransform="translate(-3.5 1.8) rotate(-1.2)" gradientUnits="userSpaceOnUse">
      <stop offset="0" stop-color="#0098ee"/>
      <stop offset=".91" stop-color="#0072bb"/>
    </linearGradient>
  </defs>
  <g>
    <path class="cls-9" d="M92.62,207.2l.38,6.21s-13.34-3.06-19.18-8.99c-4.3-4.36-5.61-9.91-5.48-15.7l9.56,14.42,14.73,4.07Z"/>
    <path class="cls-8" d="M128.71,155.27s-11.47,45.24-60.41,33.55c0,0,2.22,8.62,10.51,15.6,10.19,8.58,24.55,16.15,37.57,15.47,7.64-.4,14.42-4.78,16.2-11.68,2.23-8.65,3.09-24.61-3.87-52.94Z"/>
    <path class="cls-7" d="M110.64,181.74l.09.3s9.48-4.17,15.07-10.33c4.11-4.54,4.15-6.99,3.78-12.77l-8.69,10.56-10.26,12.23Z"/>
    <path class="cls-6" d="M82.06,112.73s39.47,18.16,28.49,69.45c0,0,7.59-5.49,13.82-14.78,9.5-14.14,19.8-35.24,12.38-52.24-.28-.65-.6-1.29-1.09-1.82-2.87-3.13-14.54-11.23-53.6-.61Z"/>
    <path class="cls-4" d="M81.49,118.22l-.38-6.21s13.34,3.06,19.18,8.99c4.3,4.36,5.61,9.91,5.48,15.7l-9.56-14.42-14.73-4.07Z"/>
    <path class="cls-5" d="M44.14,169.4s15.97-39.94,61.86-32.28c0,0-2.12-8.64-10.33-15.7-10.1-8.68-24.36-16.39-37.4-15.83-7.65.33-14.47,4.64-16.33,11.53-2.32,8.63-4.45,23.89,2.19,52.29Z"/>
    <path class="cls-3" d="M61.28,147.44s-7.34,4.12-14.09,10.31c-4.97,4.56-3.5,5.87-3.08,11.65l2.63-5.05,1.98-3.27c1.07-1.6,1.76-2.5,3.1-4.21.9-1.16,2.52-3.05,3.58-4.07l5.88-5.36Z"/>
    <path class="cls-2" d="M61.29,147.44c-6.63,5.22-11.12,11.23-13.84,15.64-8.11,14.4-15.44,33.46-9.4,48.72,0,0,7.32,14.48,54.44,1.18,0,0-36.27-15.96-31.2-65.54Z"/>
  </g>
  <text class="cls-13" transform="translate(149.88 169.81)"><tspan class="cls-11" x="0" y="0">Eazy</tspan><tspan class="cls-10" x="165.15" y="0">School</tspan></text>
  <text class="cls-1" transform="translate(155.5 213.18)"><tspan class="cls-17" x="0" y="0">Empowering School</tspan><tspan class="cls-16" x="221.83" y="0"> </tspan><tspan class="cls-17" x="227.7" y="0">Administration</tspan></text>
  <text class="cls-12" transform="translate(541.88 113.7)"><tspan class="cls-14" x="0" y="0">Ｔ</tspan><tspan class="cls-15" x="17.48" y="0">M</tspan></text>
</svg>